<svg width="1023" height="294" viewBox="0 0 1023 294" fill="none" xmlns="http://www.w3.org/2000/svg">
<path d="M382.926 87.7612H370.401C369.469 83.1072 367.78 78.8078 365.339 74.8629C362.939 70.8738 359.92 67.3945 356.278 64.4248C352.636 61.4551 348.506 59.1502 343.886 57.5102C339.268 55.8702 334.272 55.0503 328.897 55.0503C320.281 55.0503 312.421 57.2886 305.314 61.7653C298.253 66.242 292.59 72.8241 288.326 81.5116C284.107 90.1547 281.998 100.748 281.998 113.292C281.998 125.924 284.107 136.562 288.326 145.205C292.59 153.848 298.253 160.408 305.314 164.884C312.421 169.318 320.281 171.534 328.897 171.534C334.272 171.534 339.268 170.713 343.886 169.073C348.506 167.434 352.636 165.15 356.278 162.225C359.92 159.256 362.939 155.776 365.339 151.787C367.78 147.797 369.469 143.476 370.401 138.822H382.926C381.815 145.072 379.728 150.901 376.663 156.309C373.643 161.671 369.779 166.369 365.072 170.403C360.408 174.437 355.034 177.583 348.95 179.845C342.865 182.104 336.182 183.235 328.897 183.235C317.439 183.235 307.269 180.376 298.386 174.658C289.503 168.896 282.531 160.784 277.468 150.325C272.449 139.864 269.94 127.52 269.94 113.292C269.94 99.0638 272.449 86.7196 277.468 76.2592C282.531 65.7987 289.503 57.7096 298.386 51.9918C307.269 46.2298 317.439 43.3488 328.897 43.3488C336.182 43.3488 342.865 44.479 348.95 46.7394C355.034 48.9557 360.408 52.1027 365.072 56.1805C369.779 60.214 373.643 64.9123 376.663 70.2755C379.728 75.6386 381.815 81.4673 382.926 87.7612ZM520.289 113.292C520.289 127.475 517.758 139.82 512.694 150.325C507.631 160.784 500.659 168.896 491.776 174.658C482.938 180.376 472.768 183.235 461.265 183.235C449.762 183.235 439.569 180.376 430.686 174.658C421.848 168.896 414.898 160.784 409.835 150.325C404.816 139.82 402.307 127.475 402.307 113.292C402.307 99.1081 404.816 86.786 409.835 76.3256C414.898 65.8209 421.87 57.7096 430.753 51.9918C439.636 46.2298 449.806 43.3488 461.265 43.3488C472.768 43.3488 482.938 46.2298 491.776 51.9918C500.659 57.7096 507.631 65.8209 512.694 76.3256C517.758 86.786 520.289 99.1081 520.289 113.292ZM508.164 113.292C508.164 101.103 506.121 90.6643 502.035 81.977C497.949 73.2452 492.375 66.5743 485.314 61.9647C478.253 57.355 470.236 55.0503 461.265 55.0503C452.337 55.0503 444.344 57.355 437.281 61.9647C430.22 66.5743 424.624 73.223 420.494 81.9104C416.408 90.5979 414.365 101.058 414.365 113.292C414.365 125.481 416.408 135.919 420.494 144.606C424.58 153.294 430.154 159.965 437.215 164.618C444.277 169.228 452.294 171.534 461.265 171.534C470.236 171.534 478.253 169.228 485.314 164.618C492.421 160.009 498.016 153.36 502.102 144.673C506.189 135.941 508.208 125.481 508.164 113.292ZM586.636 181.373H546.666V45.2103H589.036C602.049 45.2103 613.173 47.9141 622.41 53.3215C631.694 58.7291 638.799 66.4857 643.729 76.5915C648.66 86.6974 651.123 98.82 651.123 112.959C651.123 127.231 648.592 139.487 643.53 149.726C638.51 159.92 631.182 167.744 621.546 173.195C611.952 178.647 600.316 181.373 586.636 181.373ZM559.124 170.204H585.903C597.628 170.204 607.444 167.899 615.349 163.288C623.255 158.68 629.185 152.097 633.137 143.543C637.09 134.988 639.066 124.794 639.066 112.959C639.022 101.214 637.067 91.1077 633.203 82.6418C629.384 74.1759 623.699 67.6825 616.149 63.1614C608.644 58.6404 599.361 56.3798 588.303 56.3798H559.124V170.204ZM677.567 181.373V45.2103H756.711V56.3798H690.025V107.64H752.513V118.81H690.025V170.204H758.043V181.373H677.567ZM974.157 45.2103H986.615V135.365C986.615 144.629 984.438 152.917 980.087 160.23C975.734 167.5 969.671 173.239 961.898 177.45C954.172 181.617 945.177 183.7 934.918 183.7C924.704 183.7 915.71 181.595 907.937 177.384C900.165 173.173 894.103 167.434 889.751 160.164C885.398 152.895 883.223 144.629 883.223 135.365V45.2103H895.68V134.501C895.68 141.725 897.301 148.175 900.543 153.848C903.785 159.477 908.338 163.91 914.2 167.146C920.106 170.381 927.012 171.999 934.918 171.999C942.823 171.999 949.729 170.381 955.637 167.146C961.544 163.91 966.096 159.477 969.294 153.848C972.536 148.175 974.157 141.725 974.157 134.501V45.2103Z" fill="white"/>
<path d="M784.771 220.733V207.169L844.728 112.494H854.587V133.503H847.925L802.624 205.042V206.106H883.366V220.733H784.771ZM848.992 248.657V216.611V210.295V112.494H864.713V248.657H848.992Z" fill="white"/>
<path fill-rule="evenodd" clip-rule="evenodd" d="M0 45.3433C0 39.5244 2.31619 33.9437 6.43904 29.8292C10.5619 25.7146 16.1537 23.403 21.9842 23.403H197.858C203.688 23.403 209.281 25.7146 213.404 29.8292C217.527 33.9437 219.842 39.5244 219.842 45.3433V191.612C219.842 197.431 217.527 203.012 213.404 207.127C209.281 211.241 203.688 213.552 197.858 213.552H21.9842C16.1537 213.552 10.5619 211.241 6.43904 207.127C2.31619 203.012 0 197.431 0 191.612V45.3433ZM84.9031 118.478L46.1083 79.7749L56.4848 69.4191L105.627 118.478L56.4848 167.536L46.1083 157.195L84.9031 118.478ZM175.874 169.672H117.249V155.045H175.874V169.672Z" fill="white"/>
</svg>
