<svg version="1.1" xmlns="http://www.w3.org/2000/svg"
	viewBox="0 160.7 595.3 519.9" width="250px" height="218px">
	<g fill="#CBC8C4">
		<path d="M312.5,623.5c0,0,1.7-53.5,35.7-72.2C348.2,551.3,383.8,587,312.5,623.5z" />
		<path d="M312.5,623.5c0,0,4.2,69.6,74.7,55.2C388.1,678.7,390.6,650.7,312.5,623.5z" />
		<path d="M377.9,616.7c0,0-14.4-48.4,10.2-82.4C388.1,534.3,428,570.8,377.9,616.7z" />
		<path d="M377.9,616.7c0,0,7.6,55.2,84.9,35.7C463.7,652.3,473.8,615,377.9,616.7z" />
		<path d="M432.2,587.8c0,0,37.4,57.7,89.2,6.8C521.4,594.6,501.9,564.9,432.2,587.8z" />
		<path d="M432.2,587.8c0,0-29.7-14.4-11.9-80.7C421.2,507.1,473,534.3,432.2,587.8z" />
		<path d="M477.2,542c0,0-18.7-1.7-27.2-23.8c-4.2-10.2-5.1-26.3-5.1-45.9c0,0,23.8,0.8,34.8,21.2
		C484.9,504.6,492.5,519.9,477.2,542z" />
		<path d="M477.2,542c0,0,4.2,17.8,23.8,20.4c11.9,1.7,34,0.8,49.3-10.2c18.7-13.6,19.5-27.2,19.5-27.2
		s-22.9-8.5-47.6,0C510.4,529.2,495.1,535.2,477.2,542z" />
		<path d="M510.4,491c0,0,51.8-55.2,84.1-43.3C595.3,447.7,580,523.3,510.4,491z" />
		<path d="M510.4,491c0,0-39.1-6.8-49.3-60.3C461.1,431.6,518.9,434.1,510.4,491z" />
		<path d="M529.9,435.8c0,0,18.7-62,62.8-68.8C591.9,367,608.9,431.6,529.9,435.8z" />
		<path d="M529.9,435.8c0,0-56-7.6-66.2-47.6C463.7,388.3,512.9,375.5,529.9,435.8z" />
		<path d="M535.8,371.3c0,0-19.5-49.3,38.2-79.8C574.1,291.4,596.1,351.7,535.8,371.3z" />
		<path d="M535.8,371.3c0,0-73,17-87.5-28.9C448.4,342.4,490,315.2,535.8,371.3z" />
		<path d="M512.1,312.7c0,0-21.2-57.7,17.8-93.4C529.9,219.3,573.2,282.1,512.1,312.7z" />
		<path d="M512.1,312.7c0,0-41.6-45-86.6-3.4C425.4,309.3,466.2,335.6,512.1,312.7z" />
		<path d="M477.2,260.9c0,0-39.1-42.5-5.1-100.2C472.1,160.7,525.6,229.5,477.2,260.9z" />
		<path d="M433.9,227.8c0,0,1.7-56-75.6-59.4C358.4,168.3,356.7,226.9,433.9,227.8z" />
		<path d="M281.9,623.5c0,0-1.7-53.5-35.7-72.2C246.3,551.3,211.4,587,281.9,623.5z" />
		<path d="M281.9,623.5c0,0-4.2,69.6-74.7,55.2C207.2,678.7,203.8,650.7,281.9,623.5z" />
		<path d="M216.5,616.7c0,0,14.4-48.4-10.2-82.4C207.2,534.3,167.3,570.8,216.5,616.7z" />
		<path d="M216.5,616.7c0,0-7.6,55.2-84.9,35.7C131.6,652.3,120.6,615,216.5,616.7z" />
		<path d="M162.2,587.8c0,0-37.4,57.7-89.2,6.8C73,594.6,93.4,564.9,162.2,587.8z" />
		<path d="M162.2,587.8c0,0,29.7-14.4,11.9-80.7C174.1,507.1,122.3,534.3,162.2,587.8z" />
		<path d="M118,542c0,0,18.7-1.7,27.2-23.8c4.2-10.2,5.1-26.3,5.1-45.9c0,0-23.8,0.8-34.8,21.2
		C109.5,504.6,102.8,519.9,118,542z" />
		<path d="M118,542c0,0-4.2,17.8-23.8,20.4c-11.9,1.7-34,0.8-49.3-10.2C26.3,537.7,25.5,525,25.5,525s22.9-8.5,47.6,0
		C84.9,529.2,99.4,535.2,118,542z" />
		<path d="M84.1,491c0,0-51.8-55.2-84.1-43.3C0,447.7,15.3,523.3,84.1,491z" />
		<path d="M84.1,491c0,0,39.1-6.8,49.3-60.3C134.2,431.6,76.4,434.1,84.1,491z" />
		<path d="M65.4,435.8c0,0-18.7-62-62.8-68.8C2.5,367-14.4,431.6,65.4,435.8z" />
		<path d="M65.4,435.8c0,0,56-7.6,66.2-47.6C131.6,388.3,81.5,375.5,65.4,435.8z" />
		<path d="M58.6,371.3c0,0,19.5-49.3-38.2-79.8C20.4,291.4-0.8,351.7,58.6,371.3z" />
		<path d="M58.6,371.3c0,0,73,17,87.5-28.9C146.1,342.4,104.4,315.2,58.6,371.3z" />
		<path d="M83.2,312.7c0,0,21.2-57.7-17.8-93.4C65.4,219.3,21.2,282.1,83.2,312.7z" />
		<path d="M83.2,312.7c0,0,41.6-45,86.6-3.4C169.8,309.3,128.2,335.6,83.2,312.7z" />
		<path d="M118,260.9c0,0,39.1-42.5,5.1-100.2C123.1,160.7,69.6,229.5,118,260.9z" />
		<path d="M118,263.1c0,0,32.9-38.9,81.7,10C199.9,273.1,155,298.9,118,263.1z" />
		<path d="M161.3,227.8c0,0-1.7-56,75.6-59.4C236.9,168.3,237.8,226.9,161.3,227.8z" />
		<path d="M477.2,263c0,0-32.8-38.8-81.5,10C395.7,273,440.4,298.8,477.2,263z" />
	</g>
	<text fill="#CBC8C4" x="50%" y="75%" dominant-baseline="middle" text-anchor="middle" font-size="20rem">2</text>
</svg>