<svg width="70" height="70" viewBox="0 0 70 70" xmlns="http://www.w3.org/2000/svg">
<path d="M19.6875 61.25H27.3744C23.8118 56.9433 21.8665 51.5268 21.875 45.9375C21.875 37.8 25.9131 30.6031 32.0994 26.25H8.75V50.3125C8.75 53.2133 9.90234 55.9953 11.9535 58.0465C14.0047 60.0977 16.7867 61.25 19.6875 61.25ZM61.25 21.875H8.75V19.6875C8.75 16.7867 9.90234 14.0047 11.9535 11.9535C14.0047 9.90234 16.7867 8.75 19.6875 8.75H50.3125C53.2133 8.75 55.9953 9.90234 58.0465 11.9535C60.0977 14.0047 61.25 16.7867 61.25 19.6875V21.875ZM65.625 45.9375C65.625 48.5229 65.1158 51.083 64.1264 53.4716C63.137 55.8602 61.6868 58.0305 59.8587 59.8587C58.0305 61.6868 55.8602 63.137 53.4716 64.1264C51.083 65.1158 48.5229 65.625 45.9375 65.625C43.3521 65.625 40.792 65.1158 38.4034 64.1264C36.0148 63.137 33.8445 61.6868 32.0163 59.8587C30.1882 58.0305 28.738 55.8602 27.7486 53.4716C26.7592 51.083 26.25 48.5229 26.25 45.9375C26.25 40.7161 28.3242 35.7085 32.0163 32.0163C35.7085 28.3242 40.7161 26.25 45.9375 26.25C51.1589 26.25 56.1665 28.3242 59.8587 32.0163C63.5508 35.7085 65.625 40.7161 65.625 45.9375ZM45.9375 54.1625C45.2123 54.1625 44.5168 54.4506 44.004 54.9634C43.4912 55.4762 43.2031 56.1717 43.2031 56.8969C43.2031 57.6221 43.4912 58.3176 44.004 58.8304C44.5168 59.3432 45.2123 59.6313 45.9375 59.6313C46.6627 59.6313 47.3582 59.3432 47.871 58.8304C48.3838 58.3176 48.6719 57.6221 48.6719 56.8969C48.6719 56.1717 48.3838 55.4762 47.871 54.9634C47.3582 54.4506 46.6627 54.1625 45.9375 54.1625ZM45.9375 32.8256C41.3525 32.8256 37.7825 36.4044 37.8306 41.3788C37.8364 41.9589 38.0725 42.513 38.4868 42.9191C38.9011 43.3253 39.4598 43.5502 40.04 43.5444C40.6202 43.5386 41.1743 43.3025 41.5804 42.8882C41.9865 42.4739 42.2114 41.9152 42.2056 41.335C42.1794 38.8019 43.7806 37.2006 45.9375 37.2006C48.0025 37.2006 49.6694 38.9156 49.6694 41.3569C49.6694 42.2406 49.3631 42.735 48.0944 43.7369L46.8825 44.6775C44.6687 46.445 43.75 47.8144 43.75 50.3125C43.749 50.8591 43.9527 51.3863 44.321 51.7903C44.6893 52.1943 45.1954 52.4457 45.7398 52.4951C46.2842 52.5445 46.8274 52.3882 47.2624 52.0572C47.6974 51.7261 47.9926 51.2441 48.09 50.7063L48.1381 50.0238C48.2125 49.3763 48.5756 48.9125 49.6519 48.0638L50.8638 47.1231C53.1081 45.3294 54.0444 43.9206 54.0444 41.3569C54.0444 36.5269 50.4481 32.8256 45.9375 32.8256Z"/>
</svg>
