<svg width="70" height="70" viewBox="0 0 70 70" xmlns="http://www.w3.org/2000/svg">
<path d="M55.4167 49.5835V55.4168H20.4167V49.5835C20.4167 49.5835 20.4167 37.9168 37.9167 37.9168C55.4167 37.9168 55.4167 49.5835 55.4167 49.5835ZM46.6667 23.3335C46.6667 21.6029 46.1535 19.9112 45.192 18.4723C44.2306 17.0333 42.864 15.9118 41.2651 15.2496C39.6663 14.5873 37.907 14.414 36.2096 14.7516C34.5123 15.0892 32.9532 15.9226 31.7295 17.1463C30.5058 18.37 29.6724 19.9291 29.3348 21.6265C28.9972 23.3238 29.1705 25.0831 29.8327 26.682C30.495 28.2808 31.6165 29.6474 33.0554 30.6089C34.4944 31.5703 36.1861 32.0835 37.9167 32.0835C40.2373 32.0835 42.4629 31.1616 44.1039 29.5207C45.7448 27.8797 46.6667 25.6541 46.6667 23.3335ZM56 38.0918C57.5943 39.5627 58.8797 41.3364 59.7811 43.3095C60.6825 45.2825 61.1818 47.4154 61.25 49.5835V55.4168H70V49.5835C70 49.5835 70 39.521 56 38.0918ZM52.5 14.5835C51.6188 14.584 50.743 14.7218 49.9042 14.9918C51.6106 17.4388 52.5255 20.3503 52.5255 23.3335C52.5255 26.3167 51.6106 29.2282 49.9042 31.6752C50.743 31.9452 51.6188 32.083 52.5 32.0835C54.8206 32.0835 57.0462 31.1616 58.6872 29.5207C60.3281 27.8797 61.25 25.6541 61.25 23.3335C61.25 21.0129 60.3281 18.7873 58.6872 17.1463C57.0462 15.5054 54.8206 14.5835 52.5 14.5835ZM23.3333 29.1668H14.5833V20.4168H8.75V29.1668H0V35.0002H8.75V43.7502H14.5833V35.0002H23.3333V29.1668Z" />
</svg>
