<svg width="85" height="85" viewBox="0 0 85 85" fill="none" xmlns="http://www.w3.org/2000/svg">
<path d="M42.5 0C65.9721 0 85 19.0279 85 42.5C85 65.9721 65.9721 85 42.5 85C19.0279 85 0 65.9721 0 42.5C0 19.0279 19.0279 0 42.5 0Z" fill="#E9E9E9"/>
<path d="M54.3439 36.3609H52.486V32.5831C52.486 27.3698 48.3243 23.1387 43.1964 23.1387C38.0685 23.1387 33.9068 27.3698 33.9068 32.5831V36.3609H32.0489C30.0051 36.3609 28.333 38.0609 28.333 40.1387V59.0276C28.333 61.1053 30.0051 62.8053 32.0489 62.8053H54.3439C56.3877 62.8053 58.0598 61.1053 58.0598 59.0276V40.1387C58.0598 38.0609 56.3877 36.3609 54.3439 36.3609ZM43.1964 53.3609C41.1527 53.3609 39.4805 51.6609 39.4805 49.5831C39.4805 47.5053 41.1527 45.8053 43.1964 45.8053C45.2401 45.8053 46.9122 47.5053 46.9122 49.5831C46.9122 51.6609 45.2401 53.3609 43.1964 53.3609ZM48.956 36.3609H37.4368V32.5831C37.4368 29.3531 40.0193 26.7276 43.1964 26.7276C46.3734 26.7276 48.956 29.3531 48.956 32.5831V36.3609Z" fill="black"/>
</svg>
