<svg width="85" height="85" viewBox="0 0 85 85" fill="none" xmlns="http://www.w3.org/2000/svg">
<path d="M42.5 0C65.9721 0 85 19.0279 85 42.5C85 65.9721 65.9721 85 42.5 85C19.0279 85 0 65.9721 0 42.5C0 19.0279 19.0279 0 42.5 0Z" fill="#E9E9E9"/>
<path d="M42.5 51.875C43.5313 51.875 44.4144 51.5075 45.1494 50.7725C45.8844 50.0375 46.2513 49.155 46.25 48.125C46.25 47.0938 45.8825 46.2106 45.1475 45.4756C44.4125 44.7406 43.53 44.3738 42.5 44.375C41.4688 44.375 40.5856 44.7425 39.8506 45.4775C39.1156 46.2125 38.7488 47.095 38.75 48.125C38.75 49.1563 39.1175 50.0394 39.8525 50.7744C40.5875 51.5094 41.47 51.8762 42.5 51.875ZM31.25 61.25C30.2188 61.25 29.3356 60.8825 28.6006 60.1475C27.8656 59.4125 27.4988 58.53 27.5 57.5V38.75C27.5 37.7188 27.8675 36.8356 28.6025 36.1006C29.3375 35.3656 30.22 34.9988 31.25 35H44.375V31.25C44.375 28.6563 45.2894 26.445 47.1181 24.6163C48.9469 22.7875 51.1575 21.8738 53.75 21.875C56.3438 21.875 58.555 22.7894 60.3838 24.6181C62.2125 26.4469 63.1263 28.6575 63.125 31.25H59.375C59.375 29.6875 58.8281 28.3594 57.7344 27.2656C56.6406 26.1719 55.3125 25.625 53.75 25.625C52.1875 25.625 50.8594 26.1719 49.7656 27.2656C48.6719 28.3594 48.125 29.6875 48.125 31.25V35H53.75C54.7813 35 55.6644 35.3675 56.3994 36.1025C57.1344 36.8375 57.5013 37.72 57.5 38.75V57.5C57.5 58.5312 57.1325 59.4144 56.3975 60.1494C55.6625 60.8844 54.78 61.2513 53.75 61.25H31.25Z" fill="black"/>
</svg>
