<svg width="84" height="73" viewBox="0 0 84 73" fill="none" xmlns="http://www.w3.org/2000/svg">
<path fill-rule="evenodd" clip-rule="evenodd" d="M0 8.42308C0 6.18916 0.884996 4.04667 2.4603 2.46706C4.03561 0.887456 6.17221 0 8.4 0H75.6C77.8277 0 79.9646 0.887456 81.5399 2.46706C83.1152 4.04667 84 6.18916 84 8.42308V64.5769C84 66.8107 83.1152 68.9536 81.5399 70.5332C79.9646 72.1128 77.8277 73 75.6 73H8.4C6.17221 73 4.03561 72.1128 2.4603 70.5332C0.884996 68.9536 0 66.8107 0 64.5769V8.42308ZM32.4408 36.5L17.6176 21.6417L21.5824 17.666L40.3592 36.5L21.5824 55.334L17.6176 51.3639L32.4408 36.5ZM67.2 56.1538H44.8V50.5385H67.2V56.1538Z" fill="white"/>
</svg>
