<svg width="70" height="70" viewBox="0 0 70 70" fill="none" xmlns="http://www.w3.org/2000/svg">
<path d="M21.875 57.375H22.375V56.875V13.125V12.625H21.875H13.125H12.625V13.125V56.875V57.375H13.125H21.875ZM13.125 9.25H56.875C57.9027 9.25 58.8883 9.65826 59.615 10.385C60.3417 11.1117 60.75 12.0973 60.75 13.125V56.875C60.75 57.9027 60.3417 58.8883 59.615 59.615C58.8883 60.3417 57.9027 60.75 56.875 60.75H13.125C12.0973 60.75 11.1117 60.3417 10.385 59.615C9.65826 58.8883 9.25 57.9027 9.25 56.875V13.125C9.25 12.0973 9.65826 11.1117 10.385 10.385C11.1117 9.65826 12.0973 9.25 13.125 9.25ZM30.625 42.0625H48.125C48.8378 42.0625 49.5213 41.7794 50.0254 41.2754C50.5294 40.7713 50.8125 40.0878 50.8125 39.375C50.8125 38.6622 50.5294 37.9787 50.0254 37.4746C49.5213 36.9706 48.8378 36.6875 48.125 36.6875H30.625C29.9122 36.6875 29.2287 36.9706 28.7247 37.4746C28.2206 37.9787 27.9375 38.6622 27.9375 39.375C27.9375 40.0878 28.2206 40.7713 28.7247 41.2754C29.2287 41.7794 29.9122 42.0625 30.625 42.0625ZM30.625 33.3125H48.125C48.8378 33.3125 49.5213 33.0294 50.0254 32.5253C50.5294 32.0213 50.8125 31.3378 50.8125 30.625C50.8125 29.9122 50.5294 29.2287 50.0254 28.7247C49.5213 28.2206 48.8378 27.9375 48.125 27.9375H30.625C29.9122 27.9375 29.2287 28.2206 28.7247 28.7247C28.2206 29.2287 27.9375 29.9122 27.9375 30.625C27.9375 31.3378 28.2206 32.0213 28.7247 32.5253C29.2287 33.0294 29.9122 33.3125 30.625 33.3125Z"/>
</svg>
